<?xml version="1.0" encoding="UTF-8"?>
<svg version="1.1" xmlns="http://www.w3.org/2000/svg" width="512" height="512">
<path d="M0 0 C1.00160156 0.54213135 1.00160156 0.54213135 2.0234375 1.09521484 C29.84743551 16.3524779 55.57181088 37.87045445 75 63 C75.76183594 63.93328125 76.52367187 64.8665625 77.30859375 65.828125 C85.15179907 75.61644524 91.62380731 86.21480644 98 97 C98.39461426 97.66225586 98.78922852 98.32451172 99.19580078 99.00683594 C111.9040802 120.59976847 119.75329503 145.25340919 124.75 169.6875 C124.94891846 170.66009766 125.14783691 171.63269531 125.3527832 172.63476562 C128.31840531 187.95269361 129.38034531 202.99060623 129.3125 218.5625 C129.30976578 219.87285721 129.30976578 219.87285721 129.30697632 221.20968628 C129.25758966 235.31995296 128.57796716 249.09658297 126 263 C125.82839355 263.93972656 125.65678711 264.87945312 125.47998047 265.84765625 C117.7215117 307.05975489 101.10219339 345.7757407 74 378 C73.58733887 378.50144531 73.17467773 379.00289063 72.74951172 379.51953125 C61.44049807 393.25922453 49.13054435 406.13984364 35 417 C33.53240234 418.175625 33.53240234 418.175625 32.03515625 419.375 C5.60829433 440.42529095 -35.99390792 467 -71 467 C-71 407.93 -71 348.86 -71 288 C-55.16 288 -39.32 288 -23 288 C-21.9171875 280.575 -21.9171875 280.575 -20.8125 273 C-19.10820027 261.38359761 -17.37694807 249.77164148 -15.57675171 238.16967773 C-15.35941795 236.76812163 -15.14296278 235.36642899 -14.92739868 233.96459961 C-14.62619334 232.00853117 -14.32100345 230.05307754 -14.015625 228.09765625 C-13.84321289 226.98914307 -13.67080078 225.88062988 -13.49316406 224.73852539 C-13 222 -13 222 -12 219 C-36.09 219 -60.18 219 -85 219 C-85.103125 209.6775 -85.20625 200.355 -85.3125 190.75 C-85.38078003 186.37186035 -85.38078003 186.37186035 -85.45043945 181.90527344 C-85.46506103 179.55665227 -85.47779773 177.20801829 -85.48828125 174.859375 C-85.51386108 173.66844238 -85.53944092 172.47750977 -85.5657959 171.25048828 C-85.57137932 160.38291269 -82.66117865 150.67818354 -75.015625 142.68359375 C-65.44721723 134.69137718 -54.35887393 133.69598059 -42.40625 133.8046875 C-41.35276367 133.80670166 -40.29927734 133.80871582 -39.21386719 133.81079102 C-35.30919998 133.82119072 -31.40459524 133.84911293 -27.5 133.875 C-18.755 133.91625 -10.01 133.9575 -1 134 C-1 113.87 -1 93.74 -1 73 C-7.93 72.505 -7.93 72.505 -15 72 C-19.37109375 71.46484375 -19.37109375 71.46484375 -21.36035156 71.19995117 C-31.5951649 69.90676543 -41.85468011 69.75522165 -52.15652466 69.70144653 C-53.85974442 69.69228739 -55.56294649 69.67833985 -57.26608276 69.65914917 C-84.97540691 69.38330356 -109.77998913 76.6259182 -130.1875 96.0859375 C-148.3214173 115.14071779 -153.40304112 141.39163957 -153.51171875 166.75390625 C-153.52863018 168.27662029 -153.54678865 169.79932093 -153.56611633 171.32200623 C-153.61292296 175.26565348 -153.64317486 179.2092465 -153.66955566 183.15307617 C-153.70505236 187.91929269 -153.76186002 192.68530056 -153.81494904 197.45134735 C-153.8926462 204.63420198 -153.94386612 211.81679924 -154 219 C-172.48 219 -190.96 219 -210 219 C-210 241.77 -210 264.54 -210 288 C-191.52 288 -173.04 288 -154 288 C-154 347.07 -154 406.14 -154 467 C-163.22158006 465.68263142 -171.74125172 464.27967512 -180.625 461.8125 C-181.74600098 461.50425293 -182.86700195 461.19600586 -184.02197266 460.87841797 C-220.94908027 450.54177065 -254.3075004 433.62182023 -283 408 C-283.5357666 407.52594727 -284.0715332 407.05189453 -284.62353516 406.56347656 C-333.56204848 363.09806307 -361.84930607 302.15310549 -366.8190918 237.1171875 C-370.5590614 172.67463425 -351.32258702 107.00523047 -308.39453125 58.02734375 C-306.70213788 56.16596707 -304.99932625 54.31399806 -303.28515625 52.47265625 C-301.37096117 50.40139901 -299.55412389 48.29085299 -297.75 46.125 C-279.2401629 24.9893488 -254.6967331 8.95092539 -230 -4 C-229.33339355 -4.35304199 -228.66678711 -4.70608398 -227.97998047 -5.06982422 C-157.95591332 -41.64903809 -68.52211852 -37.21400338 0 0 Z " fill="#000000" transform="translate(374,37)"/>
</svg>
