<?xml version="1.0" encoding="UTF-8"?>
<svg version="1.1" xmlns="http://www.w3.org/2000/svg" width="50" height="50">
<path d="M0 0 C1.24956985 -0.00143509 1.24956985 -0.00143509 2.52438354 -0.00289917 C4.28106767 -0.00357842 6.03775432 -0.00174193 7.79443359 0.00244141 C10.48931472 0.00780678 13.1840302 0.00248088 15.87890625 -0.00390625 C17.58593787 -0.00324569 19.29296938 -0.00196498 21 0 C21.80833282 -0.00202423 22.61666565 -0.00404846 23.44949341 -0.00613403 C29.13724971 0.01784361 29.13724971 0.01784361 31.3671875 1.1328125 C31.3671875 4.7628125 31.3671875 8.3928125 31.3671875 12.1328125 C28.36405002 13.63438124 25.57651228 13.22562454 22.2421875 13.1953125 C20.96085937 13.18628906 19.67953125 13.17726563 18.359375 13.16796875 C17.37195312 13.15636719 16.38453125 13.14476562 15.3671875 13.1328125 C15.2228125 14.0815625 15.0784375 15.0303125 14.9296875 16.0078125 C14.3671875 19.1328125 14.3671875 19.1328125 13.3671875 21.1328125 C9.7371875 21.1328125 6.1071875 21.1328125 2.3671875 21.1328125 C2.0578125 22.9065625 1.7484375 24.6803125 1.4296875 26.5078125 C0.4921875 31.8828125 0.4921875 31.8828125 -0.6328125 34.1328125 C-2.77857887 34.15967188 -4.92443895 34.17914338 -7.0703125 34.1953125 C-8.26527344 34.20691406 -9.46023438 34.21851563 -10.69140625 34.23046875 C-13.6328125 34.1328125 -13.6328125 34.1328125 -14.6328125 33.1328125 C-15.13552666 27.40187103 -14.47453847 23.96935504 -11.60546875 18.9921875 C-10.59130546 17.05346572 -10.08137846 15.26704213 -9.6328125 13.1328125 C-10.6228125 12.8028125 -11.6128125 12.4728125 -12.6328125 12.1328125 C-12.6328125 8.5028125 -12.6328125 4.8728125 -12.6328125 1.1328125 C-8.33342386 0.05796534 -4.39128414 -0.01105203 0 0 Z M4.3671875 5.1328125 C4.3671875 5.7928125 4.3671875 6.4528125 4.3671875 7.1328125 C6.3471875 7.1328125 8.3271875 7.1328125 10.3671875 7.1328125 C10.3671875 6.4728125 10.3671875 5.8128125 10.3671875 5.1328125 C8.3871875 5.1328125 6.4071875 5.1328125 4.3671875 5.1328125 Z M8.3671875 13.1328125 C8.3671875 13.7928125 8.3671875 14.4528125 8.3671875 15.1328125 C9.0271875 15.1328125 9.6871875 15.1328125 10.3671875 15.1328125 C10.6971875 15.7928125 11.0271875 16.4528125 11.3671875 17.1328125 C11.6971875 15.8128125 12.0271875 14.4928125 12.3671875 13.1328125 C11.0471875 13.1328125 9.7271875 13.1328125 8.3671875 13.1328125 Z M5.3671875 16.1328125 C5.3671875 17.1228125 5.3671875 18.1128125 5.3671875 19.1328125 C7.0171875 19.1328125 8.6671875 19.1328125 10.3671875 19.1328125 C9.7278125 19.0090625 9.0884375 18.8853125 8.4296875 18.7578125 C7.7490625 18.5515625 7.0684375 18.3453125 6.3671875 18.1328125 C6.0371875 17.4728125 5.7071875 16.8128125 5.3671875 16.1328125 Z " fill="#FA5151" transform="translate(16.6328125,7.8671875)"/>
</svg>
