<?xml version="1.0" encoding="UTF-8"?>
<svg version="1.1" xmlns="http://www.w3.org/2000/svg" width="512" height="512">
<path d="M0 0 C1.01790619 0.00215515 2.03581238 0.0043103 3.08456421 0.00653076 C17.69363523 0.05620146 32.02575853 0.30709809 46.375 3.3125 C47.34985352 3.51117676 48.32470703 3.70985352 49.32910156 3.91455078 C97.7109774 14.03517194 141.69928269 35.9516877 177.375 70.3125 C178.3640332 71.26068604 178.3640332 71.26068604 179.37304688 72.22802734 C188.86130305 81.37247479 197.6012044 90.66984009 205.375 101.3125 C206.23306152 102.46355017 207.09113451 103.61459177 207.94921875 104.765625 C213.98736829 112.95680614 219.34595521 121.47054105 224.375 130.3125 C224.73948242 130.94430176 225.10396484 131.57610352 225.47949219 132.22705078 C247.08534998 169.97532572 256.85198095 212.74189997 256.6875 255.9375 C256.68534485 256.95540619 256.6831897 257.97331238 256.68096924 259.02206421 C256.63129854 273.63113523 256.38040191 287.96325853 253.375 302.3125 C253.07698486 303.77478027 253.07698486 303.77478027 252.77294922 305.26660156 C242.65232806 353.6484774 220.7358123 397.63678269 186.375 433.3125 C185.74287598 433.97185547 185.11075195 434.63121094 184.45947266 435.31054688 C175.31502521 444.79880305 166.01765991 453.5387044 155.375 461.3125 C154.22394983 462.17056152 153.07290823 463.02863451 151.921875 463.88671875 C143.73224019 469.92427396 135.22961724 475.30707302 126.375 480.3125 C125.66778809 480.7146875 124.96057617 481.116875 124.23193359 481.53125 C101.09654164 494.5566741 75.92537591 503.30551461 49.9375 508.625 C49.21860596 508.77235596 48.49971191 508.91971191 47.7590332 509.0715332 C33.08339502 511.86090125 18.55831162 512.66142619 3.64770508 512.62817383 C0.70811513 512.6250221 -2.2304558 512.64854926 -5.16992188 512.67382812 C-18.54306192 512.71848737 -31.43916711 511.51301542 -44.625 509.3125 C-46.33055054 509.03031616 -46.33055054 509.03031616 -48.07055664 508.74243164 C-91.33802759 500.97044532 -132.38793216 480.98345309 -165.625 452.3125 C-166.37007813 451.67828125 -167.11515625 451.0440625 -167.8828125 450.390625 C-181.38779833 438.57948485 -194.05918743 425.82889772 -204.625 411.3125 C-205.48149066 410.16255169 -206.33826433 409.01281411 -207.1953125 407.86328125 C-213.23534209 399.67315742 -218.61867614 391.16870382 -223.625 382.3125 C-224.0271875 381.60528809 -224.429375 380.89807617 -224.84375 380.16943359 C-237.8691741 357.03404164 -246.61801461 331.86287591 -251.9375 305.875 C-252.08485596 305.15610596 -252.23221191 304.43721191 -252.3840332 303.6965332 C-255.35789088 288.05024391 -255.99800362 272.57681954 -255.9375 256.6875 C-255.93534485 255.66959381 -255.9331897 254.65168762 -255.93096924 253.60293579 C-255.88129854 238.99386477 -255.63040191 224.66174147 -252.625 210.3125 C-252.42632324 209.33764648 -252.22764648 208.36279297 -252.02294922 207.35839844 C-241.90232806 158.9765226 -219.9858123 114.98821731 -185.625 79.3125 C-184.99287598 78.65314453 -184.36075195 77.99378906 -183.70947266 77.31445312 C-174.56502521 67.82619695 -165.26765991 59.0862956 -154.625 51.3125 C-153.47394983 50.45443848 -152.32290823 49.59636549 -151.171875 48.73828125 C-142.98224019 42.70072604 -134.47961724 37.31792698 -125.625 32.3125 C-124.91778809 31.9103125 -124.21057617 31.508125 -123.48193359 31.09375 C-100.34654164 18.0683259 -75.17537591 9.31948539 -49.1875 4 C-48.46860596 3.85264404 -47.74971191 3.70528809 -47.0090332 3.5534668 C-31.36274391 0.57960912 -15.88931954 -0.06050362 0 0 Z " fill="#E02F2F" transform="translate(255.625,-0.3125)"/>
<path d="M0 0 C1.80358223 0.00636726 1.80358223 0.00636726 3.64360046 0.01286316 C7.43321423 0.029475 11.2222694 0.06709397 15.01171875 0.10546875 C17.60220579 0.1205382 20.19270127 0.13422261 22.78320312 0.14648438 C29.08892294 0.17675183 35.3934556 0.2355082 41.69921875 0.29296875 C41.69921875 16.46296875 41.69921875 32.63296875 41.69921875 49.29296875 C25.63671875 49.60546875 25.63671875 49.60546875 20.60913086 49.6809082 C19.27324719 49.71323626 17.93738836 49.7466153 16.6015625 49.78125 C15.92484497 49.7874939 15.24812744 49.79373779 14.55090332 49.8001709 C9.67046188 49.94560576 5.96540945 50.91445573 1.69921875 53.29296875 C-1.76075354 57.2485527 -1.76937625 61.39480357 -1.8125 66.4375 C-1.82913696 67.12050171 -1.84577393 67.80350342 -1.86291504 68.50720215 C-1.92040997 71.03964982 -1.95289117 73.57261573 -1.98828125 76.10546875 C-2.09140625 81.77734375 -2.19453125 87.44921875 -2.30078125 93.29296875 C12.21921875 93.29296875 26.73921875 93.29296875 41.69921875 93.29296875 C41.69921875 99.5719058 41.62713166 105.37512751 40.859375 111.53125 C40.77296249 112.25990768 40.68654999 112.98856537 40.59751892 113.73930359 C40.41614283 115.25955607 40.23201018 116.77948214 40.04516602 118.29907227 C39.76026463 120.61730086 39.48391422 122.93642903 39.20898438 125.25585938 C39.03043926 126.74354863 38.85141971 128.23118105 38.671875 129.71875 C38.58954117 130.40528152 38.50720734 131.09181305 38.42237854 131.79914856 C37.98413983 135.3488297 37.40223624 138.77788128 36.69921875 142.29296875 C23.82921875 142.29296875 10.95921875 142.29296875 -2.30078125 142.29296875 C-2.30078125 189.48296875 -2.30078125 236.67296875 -2.30078125 285.29296875 C-21.77078125 285.29296875 -41.24078125 285.29296875 -61.30078125 285.29296875 C-61.30078125 238.10296875 -61.30078125 190.91296875 -61.30078125 142.29296875 C-70.87078125 142.29296875 -80.44078125 142.29296875 -90.30078125 142.29296875 C-90.30078125 126.12296875 -90.30078125 109.95296875 -90.30078125 93.29296875 C-80.73078125 93.29296875 -71.16078125 93.29296875 -61.30078125 93.29296875 C-61.31238281 90.52148438 -61.32398438 87.75 -61.3359375 84.89453125 C-61.34375857 82.18050246 -61.34981794 79.46647498 -61.35571289 76.75244141 C-61.36071067 74.8806908 -61.36751113 73.00894404 -61.3762207 71.13720703 C-61.38848746 68.4313054 -61.39405525 65.72545583 -61.3984375 63.01953125 C-61.40359879 62.19619293 -61.40876007 61.37285461 -61.41407776 60.52456665 C-61.41566948 43.66404564 -57.7742762 27.95529444 -46.30859375 15.05078125 C-33.84136022 2.9488879 -16.77667785 -0.22867654 0 0 Z " fill="#FEFEFE" transform="translate(280.30078125,113.70703125)"/>
</svg>
