<?xml version="1.0" encoding="UTF-8"?>
<svg version="1.1" xmlns="http://www.w3.org/2000/svg" width="512" height="512">
<path d="M0 0 C1.01545898 0.19867676 2.03091797 0.39735352 3.07714844 0.60205078 C52.9758035 10.58327711 96.53871388 34.88580573 133 70 C133.7940625 70.7528125 134.588125 71.505625 135.40625 72.28125 C140.75597303 77.46114055 145.38660506 83.16405541 150 89 C151.19109375 90.48306641 151.19109375 90.48306641 152.40625 91.99609375 C175.32205725 121.03970389 191.22147176 154.85685587 199.6875 190.8125 C199.97306763 191.99936401 199.97306763 191.99936401 200.2644043 193.21020508 C204.22851721 210.89052902 205.555362 228.61292655 205.4375 246.6875 C205.43293793 248.18546112 205.43293793 248.18546112 205.42828369 249.71368408 C205.35621635 265.78341917 204.43972751 281.25213186 201 297 C200.78037598 298.02625488 200.56075195 299.05250977 200.33447266 300.10986328 C191.83138831 338.85817193 174.61772522 375.56726438 149 406 C148.57138672 406.51739746 148.14277344 407.03479492 147.70117188 407.56787109 C137.18164284 420.2564129 126.03816903 431.86528878 113 442 C111.52660156 443.18142578 111.52660156 443.18142578 110.0234375 444.38671875 C70.29759115 476.0035908 18.37047678 496.93437939 -32.79296875 497.203125 C-33.69337387 497.21018463 -34.59377899 497.21724426 -35.52146912 497.22451782 C-72.98691069 497.45161655 -72.98691069 497.45161655 -90 494 C-91.01545898 493.80132324 -92.03091797 493.60264648 -93.07714844 493.39794922 C-142.9758035 483.41672289 -186.53871388 459.11419427 -223 424 C-223.7940625 423.2471875 -224.588125 422.494375 -225.40625 421.71875 C-230.75597303 416.53885945 -235.38660506 410.83594459 -240 405 C-240.7940625 404.01128906 -241.588125 403.02257812 -242.40625 402.00390625 C-266.9776499 370.86198961 -283.32468106 334.48759715 -291.25 295.6875 C-291.47671387 294.57942993 -291.47671387 294.57942993 -291.70800781 293.44897461 C-292.18439803 290.97158418 -292.60252786 288.49133778 -293 286 C-293.17805176 284.88423584 -293.35610352 283.76847168 -293.53955078 282.61889648 C-295.19998488 270.98027732 -295.3987437 259.43103747 -295.375 247.6875 C-295.37445618 246.6738739 -295.37391235 245.6602478 -295.37335205 244.61590576 C-295.33347417 228.41878779 -294.46747801 212.87491635 -291 197 C-290.78037598 195.97374512 -290.56075195 194.94749023 -290.33447266 193.89013672 C-279.82149525 145.98280374 -255.85138923 104.15003587 -222 69 C-221.2471875 68.2059375 -220.494375 67.411875 -219.71875 66.59375 C-214.53885945 61.24402697 -208.83594459 56.61339494 -203 52 C-202.01128906 51.2059375 -201.02257812 50.411875 -200.00390625 49.59375 C-167.66655102 24.07913264 -130.33332447 7.86607287 -90 0 C-89.17274414 -0.16661133 -88.34548828 -0.33322266 -87.49316406 -0.50488281 C-59.91781494 -5.80488028 -27.50199116 -5.57960557 0 0 Z M102.70556641 99.58862305 C101.66000076 99.96540192 100.61443512 100.34218079 99.53718567 100.7303772 C98.40343002 101.15321991 97.26967438 101.57606262 96.1015625 102.01171875 C94.90492477 102.44680756 93.70828705 102.88189636 92.47538757 103.33016968 C89.20404822 104.51976933 85.93844991 105.72445663 82.67361832 106.93178177 C79.22350634 108.20449934 75.76815336 109.46282095 72.31323242 110.72241211 C66.62506193 112.79796157 60.93970955 114.88104794 55.25634766 116.96972656 C47.76404215 119.72267744 40.26472374 122.4560196 32.76171875 125.1796875 C31.64040558 125.58676437 30.51909241 125.99384125 29.36380005 126.41325378 C27.12674619 127.22532721 24.88967561 128.03735458 22.65258789 128.84933472 C18.15509005 130.48288701 13.65899824 132.12029041 9.16287231 133.75761414 C-1.4222813 137.61204079 -12.01152894 141.45494255 -22.60546875 145.28515625 C-23.82319977 145.72542648 -25.04093079 146.16569672 -26.29556274 146.61930847 C-28.75791207 147.50952743 -31.22026356 148.39974044 -33.68261719 149.28994751 C-54.50926078 156.8202237 -75.31654203 164.40025067 -96.09912109 172.05126953 C-112.21179392 177.98221116 -128.33811963 183.87525516 -144.4681282 189.75883102 C-160.30004311 195.53386279 -176.13159888 201.30983248 -191.953125 207.11328125 C-193.04274536 207.51294601 -194.13236572 207.91261078 -195.25500488 208.3243866 C-200.43094916 210.22393782 -205.60546634 212.12724397 -210.77734375 214.0378418 C-212.69005656 214.74410681 -214.6028157 215.45024636 -216.515625 216.15625 C-217.42308472 216.49118973 -218.33054443 216.82612946 -219.26550293 217.17121887 C-224.82175588 219.21589121 -230.39493046 221.20439783 -235.984375 223.15625 C-237.29480693 223.61944048 -238.6050384 224.08319863 -239.91503906 224.54760742 C-242.20788392 225.35659879 -244.50632911 226.14999566 -246.81152344 226.9230957 C-247.7709082 227.26429443 -248.73029297 227.60549316 -249.71875 227.95703125 C-250.93981445 228.37432495 -250.93981445 228.37432495 -252.18554688 228.80004883 C-254.27889898 229.90366066 -254.27889898 229.90366066 -254.76757812 232.62768555 C-254.88262695 233.8019812 -254.88262695 233.8019812 -255 235 C-237.56054602 240.98688952 -219.94800973 246.38705738 -202.31323242 251.76269531 C-198.22774507 253.00815945 -194.14387586 254.25884078 -190.06042385 255.51095963 C-186.86693167 256.48949878 -183.67255669 257.4651303 -180.47792244 258.43993378 C-178.97199649 258.89984569 -177.4663449 259.36065712 -175.96099663 259.82245636 C-167.36284184 262.45832625 -158.75660186 264.93265042 -150 267 C-149.84454712 267.62253662 -149.68909424 268.24507324 -149.52893066 268.88647461 C-146.89259659 279.27867215 -143.22570177 289.36715395 -139.75 299.5 C-139.04058746 301.57507884 -138.33127911 303.65019331 -137.62207031 305.7253418 C-132.70325839 320.10103185 -127.74168257 334.46196179 -122.75 348.8125 C-122.43639526 349.71597168 -122.12279053 350.61944336 -121.79968262 351.55029297 C-117.18421151 364.88176753 -117.18421151 364.88176753 -112 378 C-108.24651745 377.33508859 -106.199603 376.72562567 -103.375 374.125 C-102.69179687 373.49851562 -102.00859375 372.87203125 -101.3046875 372.2265625 C-98.18176025 369.20949719 -95.11629173 366.13720035 -92.06567383 363.04711914 C-89.48160137 360.43983512 -86.8587138 357.94015373 -84.0625 355.5625 C-79.95967462 352.0662525 -76.21994135 348.24765165 -72.43530273 344.41577148 C-69.00092496 340.95520624 -65.47246059 337.67793788 -61.73828125 334.5390625 C-59.95530334 332.96042588 -58.40620747 331.26719968 -56.8125 329.5 C-54 327 -54 327 -51.78125 327.0078125 C-47.83005416 328.41736832 -44.95694255 330.78972005 -41.6875 333.375 C-36.26455069 337.55537194 -30.79513796 341.59856563 -25.125 345.4375 C-19.36908343 349.3467916 -13.69319731 353.34981578 -8.0625 357.4375 C0.5705856 363.70349399 9.27412175 369.86414918 18 376 C20.22742489 377.5671928 22.4544714 379.13491466 24.68066406 380.70385742 C26.12580647 381.72211364 27.57175057 382.73923318 29.01855469 383.75512695 C32.16881704 385.97281399 35.29920934 388.20588241 38.37109375 390.53125 C39.34175781 391.2634375 40.31242187 391.995625 41.3125 392.75 C42.13363281 393.38421875 42.95476562 394.0184375 43.80078125 394.671875 C46.14248582 396.34463546 46.14248582 396.34463546 50 396 C52.18125728 389.10955374 53.92687155 382.21456812 55.40649414 375.14257812 C55.74032419 373.57253682 55.74032419 373.57253682 56.08089828 371.97077751 C56.81960478 368.49176002 57.55235618 365.01151595 58.28515625 361.53125 C58.81493985 359.0307314 59.3451165 356.53029605 59.87565613 354.02993774 C61.01353108 348.66354808 62.14894031 343.29664644 63.28210449 337.92926025 C65.07606245 329.43224242 66.87590129 320.93647602 68.67675781 312.44091797 C69.29247536 309.53598561 69.9081602 306.63104632 70.52383423 303.72610474 C70.75420905 302.6391611 70.75420905 302.6391611 70.9892379 301.53025901 C72.09042496 296.33434528 73.19079835 291.13825961 74.29086304 285.94210815 C78.62059241 265.49211461 82.96585697 245.04547256 87.32421875 224.6015625 C87.47150964 223.91064042 87.61880053 223.21971834 87.77055478 222.50785923 C89.5100003 214.34854652 91.25006452 206.18936583 92.99043697 198.03025079 C94.49665866 190.9688092 96.00239598 183.90726436 97.50805664 176.84570312 C97.76767905 175.6282201 98.02730146 174.41073708 98.29479122 173.15636063 C99.54074039 167.31309075 100.78600767 161.4696773 102.02964783 155.62591553 C102.49304128 153.44884589 102.95646524 151.27178275 103.41992188 149.09472656 C103.64132623 148.05468853 103.86273058 147.0146505 104.09084415 145.94309616 C105.29965199 140.27001063 106.51591696 134.59862034 107.74240494 128.92933083 C108.4223884 125.78512616 109.09898712 122.64019843 109.77516937 119.49517441 C110.21648848 117.45007473 110.66319635 115.40620529 111.11016846 113.36233521 C111.36481873 112.17654877 111.61946899 110.99076233 111.88183594 109.76904297 C112.10031189 108.76356415 112.31878784 107.75808533 112.54388428 106.72213745 C112.98500213 104.08950859 113.08699454 101.66321056 113 99 C108.95867561 97.8834432 106.61944584 98.15232246 102.70556641 99.58862305 Z " fill="#000000" transform="translate(301,9)"/>
<path d="M0 0 C1.175625 0.680625 1.175625 0.680625 2.375 1.375 C1.87371705 5.31842584 1.17792835 7.03603803 -1.9375 9.5 C-5.60720507 12.51745947 -9.1407685 15.64648689 -12.625 18.875 C-16.58232008 22.52053122 -20.57680397 26.11416873 -24.640625 29.640625 C-28.67873262 33.16999465 -32.64474189 36.78070631 -36.625 40.375 C-41.90485576 45.14286975 -47.19791806 49.89012218 -52.5625 54.5625 C-54.93464429 56.64711164 -57.28056065 58.75928644 -59.625 60.875 C-63.24176345 64.13890848 -66.88889608 67.36290949 -70.5625 70.5625 C-73.8001333 73.4076929 -76.9918629 76.30353836 -80.19140625 79.19140625 C-82.30011146 81.08348685 -84.42419801 82.95405758 -86.5625 84.8125 C-89.79059512 87.62322525 -92.96238443 90.490799 -96.125 93.375 C-99.91162998 96.82828153 -103.7297632 100.23599051 -107.59765625 103.59765625 C-109.95989173 105.66859487 -112.29295853 107.77012848 -114.625 109.875 C-117.60562721 112.56483431 -120.59745233 115.23810364 -123.625 117.875 C-127.48488324 121.23783591 -131.28844518 124.66072289 -135.0859375 128.09375 C-138.33225729 131.01044348 -141.61760413 133.881747 -144.91015625 136.74609375 C-147.62936202 139.32902953 -147.82771817 141.38623949 -148.19750977 145.00830078 C-148.34755211 146.44956833 -148.34755211 146.44956833 -148.50062561 147.91995239 C-148.65693703 149.47938065 -148.65693703 149.47938065 -148.81640625 151.0703125 C-148.92597153 152.13289276 -149.0355368 153.19547302 -149.14842224 154.29025269 C-149.49844851 157.69313737 -149.84303179 161.09654863 -150.1875 164.5 C-150.42347057 166.80342207 -150.65979413 169.10680802 -150.89648438 171.41015625 C-151.47675707 177.06469085 -152.05255872 182.71966752 -152.625 188.375 C-153.285 188.375 -153.945 188.375 -154.625 188.375 C-157.78179438 178.26006466 -160.92916388 168.14225053 -164.06444645 158.02062511 C-165.52049333 153.32112556 -166.97979984 148.62268997 -168.4465332 143.92651367 C-169.86119548 139.39663918 -171.26732406 134.86419771 -172.66750908 130.32982826 C-173.20391527 128.5980796 -173.74341914 126.86728739 -174.28602791 125.13747215 C-175.04397744 122.71933121 -175.79096211 120.29806111 -176.53540039 117.87573242 C-176.76341339 117.15716064 -176.99142639 116.43858887 -177.22634888 115.69824219 C-178.73905216 110.71715648 -178.73905216 110.71715648 -177.625 107.375 C-176.0246582 106.1550293 -176.0246582 106.1550293 -173.92578125 104.94921875 C-173.14041992 104.48990967 -172.35505859 104.03060059 -171.54589844 103.55737305 C-170.68512695 103.06406494 -169.82435547 102.57075684 -168.9375 102.0625 C-167.09352815 100.98176263 -165.25113312 99.89833129 -163.41015625 98.8125 C-161.97373779 97.96558594 -161.97373779 97.96558594 -160.50830078 97.1015625 C-155.90587377 94.34556217 -151.38985139 91.45903571 -146.875 88.5625 C-139.19306868 83.64437697 -131.48849424 78.7662048 -123.75 73.9375 C-122.75258789 73.31512451 -121.75517578 72.69274902 -120.72753906 72.05151367 C-118.70424663 70.78948094 -116.68080884 69.52768121 -114.65722656 68.26611328 C-109.64409459 65.13956576 -104.63472757 62.00699839 -99.625 58.875 C-97.62501829 57.62497074 -95.62501828 56.37497074 -93.625 55.125 C-92.635 54.50625 -91.645 53.8875 -90.625 53.25 C-87.625 51.375 -84.625 49.5 -81.625 47.625 C-80.63516113 47.00633057 -79.64532227 46.38766113 -78.62548828 45.75024414 C-76.62393381 44.49931331 -74.62230611 43.24849965 -72.62060547 41.99780273 C-67.64378404 38.88799731 -62.66822032 35.77621669 -57.6953125 32.66015625 C-47.07058255 26.00551801 -36.42620471 19.38417081 -25.75 12.8125 C-24.68668457 12.15773682 -23.62336914 11.50297363 -22.52783203 10.82836914 C-20.51650696 9.59203983 -18.50293152 8.35936193 -16.48681641 7.13085938 C-14.5724159 5.95628435 -12.66836972 4.76467087 -10.77490234 3.55664062 C-9.89012207 3.00041016 -9.0053418 2.44417969 -8.09375 1.87109375 C-7.31708984 1.37407959 -6.54042969 0.87706543 -5.74023438 0.36499023 C-3.625 -0.625 -3.625 -0.625 0 0 Z " fill="#000000" transform="translate(347.625,159.625)"/>
</svg>
